<svg width="9" height="8" viewBox="0 0 9 8" fill="none" xmlns="http://www.w3.org/2000/svg">
<path fill-rule="evenodd" clip-rule="evenodd" d="M8.25037 0.562105C8.25037 0.479225 8.21744 0.399739 8.15884 0.341134C8.10023 0.282529 8.02075 0.249605 7.93787 0.249605L4.18787 0.249605C4.10499 0.249605 4.0255 0.282529 3.9669 0.341134C3.90829 0.399739 3.87537 0.479225 3.87537 0.562105C3.87537 0.644985 3.90829 0.724471 3.9669 0.783076C4.0255 0.841681 4.10499 0.874605 4.18787 0.874605L7.18349 0.874605L0.841616 7.21585C0.782937 7.27453 0.749972 7.35412 0.749972 7.4371C0.749972 7.52009 0.782937 7.59968 0.841616 7.65835C0.900295 7.71703 0.979881 7.75 1.06287 7.75C1.14585 7.75 1.22544 7.71703 1.28412 7.65835L7.62537 1.31648L7.62537 4.31211C7.62537 4.39499 7.65829 4.47447 7.7169 4.53308C7.7755 4.59168 7.85499 4.62461 7.93787 4.62461C8.02075 4.62461 8.10023 4.59168 8.15884 4.53308C8.21744 4.47447 8.25037 4.39499 8.25037 4.31211L8.25037 0.562105Z" fill="#18AB15"/>
</svg>
