<svg width="8" height="8" viewBox="0 0 8 8" fill="none" xmlns="http://www.w3.org/2000/svg">
<path fill-rule="evenodd" clip-rule="evenodd" d="M7.74999 7.43749C7.74999 7.52037 7.71707 7.59986 7.65846 7.65846C7.59986 7.71707 7.52037 7.74999 7.43749 7.74999H3.68749C3.60461 7.74999 3.52512 7.71707 3.46652 7.65846C3.40791 7.59986 3.37499 7.52037 3.37499 7.43749C3.37499 7.35461 3.40791 7.27512 3.46652 7.21652C3.52512 7.15791 3.60461 7.12499 3.68749 7.12499H6.68312L0.34124 0.78374C0.312185 0.754685 0.289138 0.720192 0.273413 0.68223C0.257689 0.644268 0.249596 0.60358 0.249596 0.56249C0.249596 0.5214 0.257689 0.480713 0.273413 0.442751C0.289138 0.404789 0.312185 0.370295 0.34124 0.34124C0.370295 0.312185 0.404789 0.289138 0.442751 0.273413C0.480713 0.257689 0.5214 0.249596 0.56249 0.249596C0.60358 0.249596 0.644268 0.257689 0.68223 0.273413C0.720192 0.289138 0.754685 0.312185 0.78374 0.34124L7.12499 6.68312V3.68749C7.12499 3.60461 7.15791 3.52512 7.21652 3.46652C7.27512 3.40791 7.35461 3.37499 7.43749 3.37499C7.52037 3.37499 7.59986 3.40791 7.65846 3.46652C7.71707 3.52512 7.74999 3.60461 7.74999 3.68749V7.43749Z" fill="#FF0E00"/>
</svg>
