<svg width="27" height="26" viewBox="0 0 27 26" fill="none" xmlns="http://www.w3.org/2000/svg">
<path opacity="0.2" d="M26.4295 13.0002C26.4295 20.1422 20.6399 25.9318 13.4981 25.9318C6.3562 25.9318 0.566605 20.1422 0.566605 13.0002C0.566605 5.85841 6.3562 0.0688171 13.4981 0.0688171C20.6399 0.0688171 26.4295 5.85841 26.4295 13.0002Z" fill="#505050"/>
<g opacity="0.8">
<path d="M13.4568 7L13.3769 7.27148V15.1493L13.4568 15.229L17.1136 13.0675L13.4568 7Z" fill="white"/>
<path d="M13.4568 7L9.8 13.0675L13.4568 15.229V11.4054V7Z" fill="white"/>
<path d="M13.4568 16.4188L13.4118 16.4736V19.2799L13.4568 19.4113L17.1158 14.2583L13.4568 16.4188Z" fill="white"/>
<path d="M13.4568 19.4114V16.4188L9.8 14.2583L13.4568 19.4114Z" fill="white"/>
<path d="M13.4568 15.229L17.1135 13.0675L13.4568 11.4054V15.229Z" fill="white"/>
<path d="M9.8 13.0675L13.4567 15.229V11.4054L9.8 13.0675Z" fill="white"/>
</g>
</svg>
