<svg width="119" height="38" viewBox="0 0 119 38" fill="none" xmlns="http://www.w3.org/2000/svg">
<path d="M1 16.3399L2.3 19.9895C3.6 23.6392 6.2 30.9384 8.8 28.541C11.4 26.1436 14 14.0495 16.6 7.38264C19.2 0.715829 21.8 -0.523676 24.4 1.75913C27 4.04193 29.6 9.84704 32.2 11.5319C34.8 13.2167 37.4 10.7813 40 15.1675C42.6 19.5536 45.2 30.7613 47.8 34.9725C50.4 39.1837 53 36.3984 55.6 36.2871C58.2 36.1757 60.8 38.7382 63.4 35.9998C66 33.2614 68.6 25.2221 71.2 24.4699C73.8 23.7176 76.4 30.2524 79 28.6702C81.6 27.0879 84.2 17.3887 86.8 17.7439C89.4 18.0992 92 28.5089 94.6 30.9923C97.2 33.4756 99.8 28.0325 102.4 22.5903C105 17.1481 107.6 11.7069 110.2 9.93719C112.8 8.16745 115.4 10.0692 116.7 11.0201L118 11.9709" stroke="#F7931A" stroke-width="0.448921"/>
</svg>
