<svg width="15" height="13" viewBox="0 0 15 13" fill="none" xmlns="http://www.w3.org/2000/svg">
<path d="M0.833333 0.952013L1.68667 0.105347L12.8333 11.252L11.9867 12.1053L9.93333 10.052C9.16667 10.3053 8.35333 10.4387 7.5 10.4387C4.16667 10.4387 1.32 8.36535 0.166666 5.43868C0.626666 4.26535 1.36 3.23201 2.29333 2.41201L0.833333 0.952013ZM7.5 3.43868C8.03043 3.43868 8.53914 3.64939 8.91421 4.02447C9.28929 4.39954 9.5 4.90825 9.5 5.43868C9.5 5.67201 9.46 5.89868 9.38667 6.10535L6.83333 3.55201C7.04 3.47868 7.26667 3.43868 7.5 3.43868ZM7.5 0.43868C10.8333 0.43868 13.68 2.51201 14.8333 5.43868C14.2867 6.82535 13.36 8.02535 12.1667 8.89868L11.22 7.94535C12.1267 7.31868 12.8733 6.46535 13.38 5.43868C12.28 3.19868 10.0067 1.77201 7.5 1.77201C6.77333 1.77201 6.06 1.89201 5.39333 2.10535L4.36667 1.08535C5.32667 0.672013 6.38667 0.43868 7.5 0.43868ZM1.62 5.43868C2.72 7.67868 4.99333 9.10535 7.5 9.10535C7.96 9.10535 8.41333 9.05868 8.83333 8.96535L7.31333 7.43868C6.36 7.33868 5.6 6.57868 5.5 5.62535L3.23333 3.35201C2.57333 3.91868 2.02 4.62535 1.62 5.43868Z" fill="white" fill-opacity="0.5"/>
</svg>
