<svg width="16" height="14" viewBox="0 0 16 14" xmlns="http://www.w3.org/2000/svg">
<path d="M14.7891 6.89062L8.35313 0.459368C8.30679 0.412937 8.25175 0.376101 8.19115 0.350967C8.13056 0.325834 8.0656 0.312897 8 0.312897C7.9344 0.312897 7.86945 0.325834 7.80885 0.350967C7.74826 0.376101 7.69322 0.412937 7.64688 0.459368L1.21094 6.89062C1.02344 7.07812 0.917191 7.33281 0.917191 7.59843C0.917191 8.14999 1.36563 8.59843 1.91719 8.59843H2.59532V13.1875C2.59532 13.4641 2.81875 13.6875 3.09532 13.6875H7V10.1875H8.75V13.6875H12.9047C13.1813 13.6875 13.4047 13.4641 13.4047 13.1875V8.59843H14.0828C14.3484 8.59843 14.6031 8.49374 14.7906 8.30468C15.1797 7.91406 15.1797 7.28124 14.7891 6.89062Z"/>
</svg>
