<svg width="14" height="10" viewBox="0 0 14 10" fill="none" xmlns="http://www.w3.org/2000/svg">
<path d="M13.9416 4.75C12.5281 1.81875 9.869 0 7 0C4.131 0 1.47193 1.81875 0.058419 4.75C0.0198881 4.82885 0 4.91396 0 5C0 5.08604 0.0198881 5.17115 0.058419 5.25C1.47193 8.18125 4.131 10 7 10C9.869 10 12.5281 8.18125 13.9416 5.25C13.9801 5.17115 14 5.08604 14 5C14 4.91396 13.9801 4.82885 13.9416 4.75V4.75ZM7 8.75C4.78177 8.75 2.6825 7.31875 1.47193 5C2.6825 2.68125 4.78177 1.25 7 1.25C9.21823 1.25 11.3175 2.68125 12.5281 5C11.3175 7.31875 9.21823 8.75 7 8.75ZM7 2.5C6.44641 2.5 5.90524 2.64662 5.44495 2.92133C4.98465 3.19603 4.62589 3.58648 4.41404 4.04329C4.20219 4.50011 4.14676 5.00277 4.25476 5.48773C4.36276 5.97268 4.62934 6.41814 5.02079 6.76777C5.41224 7.1174 5.91098 7.3555 6.45394 7.45196C6.99689 7.54843 7.55969 7.49892 8.07114 7.3097C8.5826 7.12048 9.01974 6.80005 9.3273 6.38893C9.63486 5.9778 9.79902 5.49445 9.79902 5C9.79902 4.33696 9.50413 3.70107 8.97921 3.23223C8.45429 2.76339 7.74235 2.5 7 2.5V2.5ZM7 6.25C6.7232 6.25 6.45262 6.17669 6.22247 6.03934C5.99232 5.90199 5.81294 5.70676 5.70702 5.47835C5.60109 5.24995 5.57338 4.99861 5.62738 4.75614C5.68138 4.51366 5.81467 4.29093 6.0104 4.11612C6.20612 3.9413 6.45549 3.82225 6.72697 3.77402C6.99845 3.72579 7.27984 3.75054 7.53557 3.84515C7.7913 3.93976 8.00987 4.09998 8.16365 4.30554C8.31743 4.5111 8.39951 4.75277 8.39951 5C8.39951 5.33152 8.25206 5.64946 7.9896 5.88388C7.72714 6.1183 7.37117 6.25 7 6.25Z" fill="white" fill-opacity="0.5"/>
</svg>
