<svg width="17" height="16" viewBox="0 0 17 16" fill="none" xmlns="http://www.w3.org/2000/svg">
<path d="M9.33325 7.43335H5.33325" stroke-width="1.5" stroke-linecap="round" stroke-linejoin="round"/>
<path d="M2 7.43331V4.35331C2 2.99331 3.1 1.89331 4.46 1.89331H8.20667C9.56667 1.89331 10.6667 2.73998 10.6667 4.09998" stroke-width="1.5" stroke-linecap="round" stroke-linejoin="round"/>
<path d="M12.32 8.13342C11.9867 8.45342 11.8267 8.94674 11.96 9.45341C12.1267 10.0734 12.74 10.4668 13.38 10.4668H14V11.4334C14 12.9068 12.8067 14.1001 11.3333 14.1001H4.66667C3.19333 14.1001 2 12.9068 2 11.4334V6.76676C2 5.29343 3.19333 4.1001 4.66667 4.1001H11.3333C12.8 4.1001 14 5.3001 14 6.76676V7.7334H13.28C12.9067 7.7334 12.5667 7.88009 12.32 8.13342Z" stroke-width="1.5" stroke-linecap="round" stroke-linejoin="round"/>
<path d="M15.3334 8.41341V9.78674C15.3334 10.1601 15.0267 10.4668 14.6467 10.4668H13.36C12.64 10.4668 11.98 9.94009 11.92 9.22009C11.88 8.80009 12.04 8.40676 12.32 8.13342C12.5667 7.88009 12.9067 7.7334 13.28 7.7334H14.6467C15.0267 7.7334 15.3334 8.04008 15.3334 8.41341Z" stroke-width="1.5" stroke-linecap="round" stroke-linejoin="round"/>
</svg>
